# xmcd
#
# Track frame offsets: 
#        150
#        33577
#        56324
#        82585
#        96535
#        116394
#        135112
#        170639
#        188221
#        201370
#
# Disc length: 2876 seconds
#
# Revision: 0
# Processed by: cddbd v1.5.2PL0 Copyright (c) Steve Scherf et al.
# Submitted via: ExactAudioCopy v1.0b3
#
DISCID=7c0b3a0a
DTITLE=Demis Roussos - Attitudes
DYEAR=1982
DGENRE=Pop
TTITLE0=Follow Me
TTITLE1=Pretender
TTITLE2=Planet Earth Is Blue
TTITLE3=Deepest Of All
TTITLE4=Take My Hand
TTITLE5=Flaming Star
TTITLE6=House Of The Rising Sun
TTITLE7=Ballad Of Johnny O'Day
TTITLE8=Jay
TTITLE9=The Land That Time Had Forgotten
EXTD=
EXTT0=
EXTT1=
EXTT2=
EXTT3=
EXTT4=
EXTT5=
EXTT6=
EXTT7=
EXTT8=
EXTT9=
PLAYORDER=
